<?xml version="1.0" encoding="UTF-8"?>
<svg version="1.1" xmlns="http://www.w3.org/2000/svg" width="36" height="36">
<path d="M0,0 L36,0 L36,32 L35,32 L35,34 L34,34 L34,35 L32,35 L32,36 L26,36 L26,35 L10,35 L10,36 L4,36 L4,35 L2,35 L2,34 L1,34 L1,32 L0,32 Z " fill="#050505" transform="translate(0,0)"/>
<path d="M0,0 L8,0 L8,4 L16,4 L16,7 L18,7 L18,8 L20,8 L20,9 L21,9 L21,11 L20,11 L20,12 L18,12 L18,13 L12,13 L12,12 L-4,12 L-4,13 L-10,13 L-10,12 L-12,12 L-12,11 L-13,11 L-13,9 L-12,9 L-12,8 L-10,8 L-10,7 L-8,7 L-8,4 L0,4 Z " fill="#F0F0F0" transform="translate(14,23)"/>
<path d="M0,0 L36,0 L36,18 L34,18 L34,10 L31,10 L31,9 L30,9 L30,6 L27,6 L27,4 L9,4 L9,6 L6,6 L6,9 L4,9 L4,10 L2,10 L2,18 L0,18 Z " fill="#FBFBFB" transform="translate(0,0)"/>
<path d="M0,0 L8,0 L8,3 L0,3 Z " fill="#B1B0B0" transform="translate(14,23)"/>
</svg>
